<svg xmlns="http://www.w3.org/2000/svg" xmlns:xlink="http://www.w3.org/1999/xlink" width="500" zoomAndPan="magnify" viewBox="0 0 375 374.999991" height="500" preserveAspectRatio="xMidYMid meet" version="1.0"><defs><g/><clipPath id="02b3b65c85"><path d="M 114.308594 59.570312 L 260.691406 59.570312 L 260.691406 229.902344 L 114.308594 229.902344 Z M 114.308594 59.570312 " clip-rule="nonzero"/></clipPath><clipPath id="d562592d99"><path d="M 187.5 59.570312 L 260.691406 102.152344 L 260.691406 187.320312 L 187.5 229.902344 L 114.308594 187.320312 L 114.308594 102.152344 L 187.5 59.570312 " clip-rule="nonzero"/></clipPath><clipPath id="cff049fdae"><path d="M 126.957031 87.714844 L 185 87.714844 L 185 201.703125 L 126.957031 201.703125 Z M 126.957031 87.714844 " clip-rule="nonzero"/></clipPath><clipPath id="1ed721b0b1"><path d="M 190 87.714844 L 247.707031 87.714844 L 247.707031 201.703125 L 190 201.703125 Z M 190 87.714844 " clip-rule="nonzero"/></clipPath></defs><rect x="-37.5" width="450" fill="#ffffff" y="-37.499999" height="449.999989" fill-opacity="1"/><rect x="-37.5" width="450" fill="#ffffff" y="-37.499999" height="449.999989" fill-opacity="1"/><g clip-path="url(#02b3b65c85)"><g clip-path="url(#d562592d99)"><path fill="#ffb300" d="M 114.308594 59.570312 L 260.691406 59.570312 L 260.691406 229.902344 L 114.308594 229.902344 Z M 114.308594 59.570312 " fill-opacity="1" fill-rule="nonzero"/></g></g><g clip-path="url(#cff049fdae)"><path fill="#ffffff" d="M 160.453125 93.832031 C 160.628906 93.832031 160.804688 93.847656 160.980469 93.847656 C 163.21875 90.175781 167.246094 87.703125 171.828125 87.703125 C 178.796875 87.703125 184.503906 93.425781 184.503906 100.40625 L 184.503906 189.011719 C 184.503906 195.996094 178.796875 201.714844 171.828125 201.714844 C 165.15625 201.714844 159.640625 196.472656 159.179688 189.910156 C 157.6875 190.425781 156.074219 190.710938 154.394531 190.710938 C 146.328125 190.710938 139.792969 184.160156 139.792969 176.078125 C 139.792969 174.609375 140.007812 173.195312 140.414062 171.851562 C 132.578125 168.96875 126.992188 161.429688 126.992188 152.585938 C 126.992188 147.476562 128.851562 142.816406 131.914062 139.226562 C 130.382812 136.808594 129.484375 133.941406 129.484375 130.871094 C 129.484375 122.257812 136.453125 115.273438 145.050781 115.273438 C 145.375 115.273438 145.703125 115.285156 146.027344 115.296875 C 145.292969 113.492188 144.886719 111.507812 144.886719 109.429688 C 144.890625 100.816406 151.855469 93.832031 160.453125 93.832031 Z M 160.453125 93.832031 " fill-opacity="1" fill-rule="evenodd"/></g><g clip-path="url(#1ed721b0b1)"><path fill="#ffffff" d="M 214.074219 93.832031 C 211.851562 90.164062 207.417969 87.703125 202.832031 87.703125 C 195.863281 87.703125 190.15625 93.425781 190.15625 100.40625 C 190.15625 129.945312 190.15625 159.484375 190.15625 189.011719 C 190.15625 195.996094 195.863281 201.714844 202.832031 201.714844 C 209.449219 201.714844 214.914062 196.582031 215.46875 190.097656 C 216.6875 190.410156 217.488281 190.4375 217.488281 190.4375 C 218.382812 190.613281 219.316406 190.707031 220.269531 190.707031 C 228.335938 190.707031 234.871094 184.15625 234.871094 176.074219 C 234.871094 174.648438 234.667969 173.277344 234.285156 171.984375 C 242.191406 168.46875 247.667969 161.785156 247.667969 152.585938 C 247.667969 147.558594 245.867188 142.949219 242.882812 139.394531 C 244.25 136.78125 245.171875 133.835938 245.171875 130.875 C 245.171875 122.261719 238.207031 115.273438 229.609375 115.273438 C 229.28125 115.273438 228.957031 115.289062 228.632812 115.300781 C 229.363281 113.492188 229.773438 111.511719 229.773438 109.429688 C 229.773438 100.542969 222.832031 93.546875 214.074219 93.832031 Z M 205.191406 142.9375 C 208.394531 142.9375 210.996094 145.546875 210.996094 148.753906 C 210.996094 151.972656 208.390625 154.570312 205.191406 154.570312 C 203.105469 154.570312 201.277344 153.46875 200.246094 151.796875 C 194.0625 154.796875 193.617188 165.382812 193.589844 167.570312 L 193.589844 189.011719 C 193.589844 194.09375 197.753906 198.28125 202.835938 198.28125 C 207.664062 198.28125 211.730469 194.488281 212.066406 189.664062 L 212.132812 188.824219 C 209.734375 187.574219 207.050781 185.359375 205.234375 181.433594 L 205.21875 181.433594 C 202.019531 181.433594 199.417969 178.835938 199.417969 175.617188 C 199.417969 172.410156 202.023438 169.800781 205.21875 169.800781 C 208.417969 169.800781 211.023438 172.414062 211.023438 175.617188 C 211.023438 177.261719 210.34375 178.742188 209.246094 179.800781 C 214.789062 191.636719 231.453125 188.660156 231.453125 176.078125 C 231.453125 175.113281 231.316406 174.148438 231.074219 173.210938 C 228.484375 174.042969 226.4375 174.300781 222.789062 174.203125 C 221.800781 175.96875 219.902344 177.167969 217.734375 177.167969 C 214.535156 177.167969 211.933594 174.570312 211.933594 171.351562 C 211.933594 168.144531 214.535156 165.539062 217.734375 165.539062 C 220.539062 165.539062 222.871094 167.535156 223.414062 170.183594 C 229.625 170.441406 235.5625 167.46875 235.886719 167.304688 C 241 164.261719 244.253906 158.703125 244.253906 152.585938 C 244.253906 148.917969 243.089844 145.386719 240.945312 142.464844 C 239.035156 144.976562 236.183594 147.601562 232.066406 148.875 C 231.453125 151.445312 229.164062 153.347656 226.414062 153.347656 C 223.210938 153.347656 220.621094 150.738281 220.621094 147.53125 C 220.621094 144.328125 223.210938 141.71875 226.414062 141.71875 C 228.484375 141.71875 230.304688 142.804688 231.320312 144.433594 C 238.058594 141.769531 240.902344 135.316406 241.011719 135.074219 C 241.5 133.738281 241.742188 132.316406 241.742188 130.875 C 241.742188 124.148438 236.304688 118.710938 229.609375 118.710938 C 229.351562 118.710938 229.09375 118.710938 228.847656 118.726562 L 227.992188 118.777344 C 226.460938 122.09375 222.695312 126.78125 215.234375 130.328125 C 215.277344 130.574219 215.289062 130.816406 215.289062 131.0625 C 215.289062 134.28125 212.683594 136.878906 209.488281 136.878906 C 206.289062 136.878906 203.683594 134.28125 203.683594 131.0625 C 203.683594 127.855469 206.289062 125.246094 209.488281 125.246094 C 210.921875 125.246094 212.238281 125.777344 213.257812 126.648438 C 219.628906 124.109375 226.351562 116.714844 226.351562 109.433594 C 226.351562 102.855469 221.148438 97.503906 214.640625 97.269531 C 214.558594 99.976562 213.390625 104.703125 210.695312 107.761719 C 211.140625 108.589844 211.398438 109.542969 211.398438 110.546875 C 211.398438 113.753906 208.808594 116.363281 205.597656 116.363281 C 202.394531 116.363281 199.804688 113.753906 199.804688 110.546875 C 199.804688 107.34375 202.394531 104.734375 205.597656 104.734375 C 206.152344 104.734375 206.679688 104.816406 207.183594 104.949219 C 210.097656 101.226562 212.144531 96.089844 208.523438 93.171875 C 206.949219 91.894531 204.929688 91.171875 202.832031 91.144531 C 197.746094 91.0625 193.585938 95.320312 193.585938 100.414062 L 193.585938 152.902344 C 194.953125 150.878906 196.824219 149.191406 199.414062 148.242188 C 199.675781 145.261719 202.167969 142.9375 205.191406 142.9375 Z M 205.191406 146.265625 C 206.5625 146.265625 207.6875 147.382812 207.6875 148.753906 C 207.6875 150.140625 206.5625 151.253906 205.191406 151.253906 C 203.824219 151.253906 202.699219 150.140625 202.699219 148.753906 C 202.699219 147.378906 203.824219 146.265625 205.191406 146.265625 Z M 205.21875 173.128906 C 206.589844 173.128906 207.714844 174.242188 207.714844 175.613281 C 207.714844 177 206.589844 178.117188 205.21875 178.117188 C 203.835938 178.117188 202.722656 177 202.722656 175.613281 C 202.722656 174.242188 203.835938 173.128906 205.21875 173.128906 Z M 217.734375 168.863281 C 219.117188 168.863281 220.230469 169.976562 220.230469 171.347656 C 220.230469 171.496094 220.214844 171.648438 220.1875 171.785156 L 220.136719 172 C 219.851562 173.058594 218.886719 173.847656 217.734375 173.847656 C 216.367188 173.847656 215.242188 172.734375 215.242188 171.347656 C 215.238281 169.976562 216.367188 168.863281 217.734375 168.863281 Z M 226.410156 145.03125 C 227.792969 145.03125 228.90625 146.15625 228.90625 147.53125 C 228.90625 148.90625 227.792969 150.03125 226.410156 150.03125 C 225.042969 150.03125 223.929688 148.90625 223.929688 147.53125 C 223.929688 146.15625 225.042969 145.03125 226.410156 145.03125 Z M 209.492188 128.574219 C 210.859375 128.574219 211.988281 129.691406 211.988281 131.0625 C 211.988281 132.449219 210.863281 133.5625 209.492188 133.5625 C 208.109375 133.5625 206.996094 132.449219 206.996094 131.0625 C 206.996094 129.691406 208.109375 128.574219 209.492188 128.574219 Z M 206.929688 108.425781 L 207.023438 108.492188 C 206.996094 108.464844 206.957031 108.453125 206.929688 108.425781 Z M 206.929688 108.425781 L 206.875 108.394531 L 206.859375 108.394531 L 206.765625 108.34375 L 206.742188 108.316406 L 206.726562 108.316406 L 206.683594 108.289062 L 206.65625 108.289062 L 206.613281 108.261719 L 206.574219 108.246094 L 206.558594 108.234375 L 206.519531 108.21875 L 206.464844 108.191406 L 206.4375 108.191406 L 206.398438 108.175781 L 206.382812 108.175781 L 206.34375 108.164062 L 206.328125 108.148438 L 206.285156 108.132812 L 206.273438 108.132812 L 206.21875 108.121094 L 206.164062 108.105469 L 206.15625 108.105469 L 206.101562 108.089844 L 206.050781 108.074219 L 206.035156 108.074219 L 205.984375 108.0625 L 205.914062 108.0625 L 205.863281 108.046875 L 205.742188 108.046875 L 205.671875 108.03125 L 205.511719 108.03125 L 205.484375 108.046875 L 205.335938 108.046875 L 205.308594 108.0625 L 205.226562 108.0625 L 205.210938 108.074219 L 205.171875 108.074219 L 205.144531 108.089844 L 205.105469 108.089844 L 205.078125 108.105469 L 205.050781 108.105469 L 205.011719 108.121094 L 204.980469 108.121094 L 204.949219 108.140625 L 204.921875 108.140625 L 204.910156 108.152344 L 204.882812 108.152344 L 204.867188 108.167969 L 204.851562 108.167969 L 204.8125 108.183594 L 204.785156 108.183594 L 204.757812 108.195312 L 204.746094 108.195312 L 204.730469 108.210938 L 204.6875 108.226562 L 204.664062 108.242188 L 204.636719 108.253906 L 204.582031 108.285156 L 204.566406 108.285156 L 204.542969 108.296875 L 204.527344 108.296875 L 204.511719 108.3125 L 204.484375 108.328125 L 204.472656 108.328125 L 204.457031 108.34375 L 204.429688 108.355469 L 204.402344 108.371094 L 204.378906 108.386719 L 204.363281 108.398438 L 204.347656 108.398438 L 204.320312 108.425781 L 204.308594 108.425781 L 204.292969 108.441406 L 204.265625 108.457031 L 204.238281 108.46875 L 204.214844 108.496094 L 204.1875 108.511719 L 204.164062 108.507812 L 204.136719 108.53125 L 204.121094 108.546875 L 204.105469 108.546875 L 204.082031 108.574219 L 204.066406 108.574219 L 203.984375 108.65625 L 203.96875 108.65625 L 203.957031 108.671875 L 203.929688 108.699219 L 203.902344 108.710938 L 203.886719 108.738281 L 203.859375 108.765625 L 203.847656 108.78125 L 203.832031 108.78125 L 203.816406 108.804688 L 203.789062 108.820312 L 203.789062 108.835938 L 203.777344 108.851562 L 203.75 108.863281 L 203.75 108.878906 C 203.355469 109.328125 203.113281 109.910156 203.113281 110.550781 C 203.113281 111.921875 204.226562 113.050781 205.59375 113.050781 C 206.976562 113.050781 208.128906 111.925781 208.089844 110.550781 L 208.089844 110.347656 L 208.074219 110.292969 L 208.074219 110.214844 L 208.058594 110.164062 L 208.058594 110.152344 L 208.046875 110.097656 L 208.03125 110.042969 L 208.03125 110.03125 C 208.03125 109.988281 208.015625 109.960938 208.003906 109.921875 L 207.992188 109.867188 L 207.976562 109.800781 L 207.960938 109.746094 L 207.933594 109.695312 L 207.910156 109.640625 L 207.894531 109.585938 L 207.867188 109.535156 L 207.867188 109.519531 L 207.839844 109.480469 L 207.839844 109.464844 L 207.8125 109.421875 L 207.761719 109.3125 L 207.734375 109.261719 L 207.707031 109.21875 C 207.679688 109.179688 207.667969 109.152344 207.640625 109.125 L 207.625 109.109375 L 207.597656 109.070312 L 207.597656 109.054688 L 207.574219 109.027344 L 207.546875 108.988281 L 207.449219 108.890625 C 207.398438 108.808594 207.328125 108.742188 207.246094 108.671875 L 207.234375 108.660156 L 207.207031 108.644531 L 207.179688 108.617188 L 207.152344 108.601562 L 207.113281 108.5625 L 207.085938 108.546875 L 207.070312 108.519531 L 207.050781 108.507812 L 207.023438 108.492188 Z M 206.929688 108.425781 " fill-opacity="1" fill-rule="evenodd"/></g><g fill="#00214d" fill-opacity="1"><g transform="translate(38.460939, 282.648029)"><g><path d="M 22.339844 0 L 29.113281 0 L 17.492188 -28.742188 L 11.621094 -28.742188 L 0.328125 0 L 6.941406 0 L 8.910156 -5.421875 L 20.324219 -5.421875 Z M 14.617188 -21.148438 L 18.394531 -10.839844 L 10.839844 -10.839844 Z M 14.617188 -21.148438 "/></g></g></g><g fill="#00214d" fill-opacity="1"><g transform="translate(67.943791, 282.648029)"><g><path d="M 3.285156 0 L 9.484375 0 L 9.484375 -28.742188 L 3.285156 -28.742188 Z M 3.285156 0 "/></g></g></g><g fill="#00214d" fill-opacity="1"><g transform="translate(80.755279, 282.648029)"><g/></g></g><g fill="#00214d" fill-opacity="1"><g transform="translate(90.569205, 282.648029)"><g><path d="M 15.890625 -14.988281 L 15.890625 -10.222656 L 24.515625 -10.222656 C 23.445312 -7.269531 20.203125 -5.296875 16.507812 -5.296875 C 11.332031 -5.296875 7.925781 -8.992188 7.925781 -14.332031 C 7.925781 -19.710938 11.414062 -23.40625 16.507812 -23.40625 C 20.121094 -23.40625 23.160156 -21.476562 24.390625 -18.394531 L 30.796875 -18.394531 C 29.441406 -24.84375 23.527344 -29.359375 16.382812 -29.359375 C 7.882812 -29.359375 1.601562 -22.914062 1.601562 -14.332031 C 1.601562 -5.707031 8.046875 0.65625 16.507812 0.65625 C 25.128906 0.65625 31.167969 -5.996094 31.167969 -14.988281 Z M 15.890625 -14.988281 "/></g></g></g><g fill="#00214d" fill-opacity="1"><g transform="translate(123.295998, 282.648029)"><g><path d="M 14.863281 0.65625 C 21.640625 0.65625 26.730469 -4.066406 26.730469 -10.800781 L 26.730469 -28.742188 L 20.488281 -28.742188 L 20.488281 -11.085938 C 20.488281 -7.515625 18.148438 -5.214844 14.863281 -5.214844 C 11.539062 -5.214844 9.199219 -7.515625 9.199219 -11.085938 L 9.199219 -28.742188 L 2.957031 -28.742188 L 2.957031 -10.800781 C 2.957031 -4.066406 8.046875 0.65625 14.863281 0.65625 Z M 14.863281 0.65625 "/></g></g></g><g fill="#00214d" fill-opacity="1"><g transform="translate(153.025229, 282.648029)"><g><path d="M 3.285156 0 L 9.484375 0 L 9.484375 -28.742188 L 3.285156 -28.742188 Z M 3.285156 0 "/></g></g></g><g fill="#00214d" fill-opacity="1"><g transform="translate(165.836717, 282.648029)"><g><path d="M 14.125 -28.742188 L 3.285156 -28.742188 L 3.285156 0 L 14.125 0 C 22.585938 0 28.703125 -6.035156 28.703125 -14.371094 C 28.703125 -22.707031 22.585938 -28.742188 14.125 -28.742188 Z M 14.003906 -5.75 L 9.484375 -5.75 L 9.484375 -22.953125 L 14.003906 -22.953125 C 18.929688 -22.953125 22.339844 -19.464844 22.339844 -14.371094 C 22.339844 -9.363281 18.929688 -5.75 14.003906 -5.75 Z M 14.003906 -5.75 "/></g></g></g><g fill="#00214d" fill-opacity="1"><g transform="translate(196.264002, 282.648029)"><g><path d="M 9.484375 -5.75 L 9.484375 -11.660156 L 19.464844 -11.660156 L 19.464844 -17.289062 L 9.484375 -17.289062 L 9.484375 -22.996094 L 20.53125 -22.996094 L 20.53125 -28.742188 L 3.285156 -28.742188 L 3.285156 0 L 20.984375 0 L 20.984375 -5.75 Z M 9.484375 -5.75 "/></g></g></g><g fill="#00214d" fill-opacity="1"><g transform="translate(219.21792, 282.648029)"><g><path d="M 14.125 -28.742188 L 3.285156 -28.742188 L 3.285156 0 L 14.125 0 C 22.585938 0 28.703125 -6.035156 28.703125 -14.371094 C 28.703125 -22.707031 22.585938 -28.742188 14.125 -28.742188 Z M 14.003906 -5.75 L 9.484375 -5.75 L 9.484375 -22.953125 L 14.003906 -22.953125 C 18.929688 -22.953125 22.339844 -19.464844 22.339844 -14.371094 C 22.339844 -9.363281 18.929688 -5.75 14.003906 -5.75 Z M 14.003906 -5.75 "/></g></g></g><g fill="#00214d" fill-opacity="1"><g transform="translate(249.645205, 282.648029)"><g/></g></g><g fill="#00214d" fill-opacity="1"><g transform="translate(259.459131, 282.648029)"><g><path d="M 23.078125 -28.742188 L 0.863281 -28.742188 L 0.863281 -22.953125 L 8.871094 -22.953125 L 8.871094 0 L 15.070312 0 L 15.070312 -22.953125 L 23.078125 -22.953125 Z M 23.078125 -28.742188 "/></g></g></g><g fill="#00214d" fill-opacity="1"><g transform="translate(283.439607, 282.648029)"><g><path d="M 9.484375 -5.75 L 9.484375 -28.742188 L 3.285156 -28.742188 L 3.285156 0 L 20.53125 0 L 20.53125 -5.75 Z M 9.484375 -5.75 "/></g></g></g><g fill="#00214d" fill-opacity="1"><g transform="translate(304.874206, 282.648029)"><g><path d="M 16.464844 0.65625 C 23.570312 0.65625 29.15625 -4.105469 30.46875 -11.210938 L 24.1875 -11.210938 C 23.160156 -7.597656 20.242188 -5.296875 16.464844 -5.296875 C 11.578125 -5.296875 7.925781 -9.15625 7.925781 -14.332031 C 7.925781 -19.503906 11.578125 -23.40625 16.464844 -23.40625 C 20.078125 -23.40625 22.953125 -21.269531 24.144531 -17.902344 L 30.34375 -17.902344 C 29.03125 -24.71875 23.445312 -29.359375 16.464844 -29.359375 C 8.007812 -29.359375 1.601562 -22.871094 1.601562 -14.332031 C 1.601562 -5.832031 8.007812 0.65625 16.464844 0.65625 Z M 16.464844 0.65625 "/></g></g></g><g fill="#00214d" fill-opacity="1"><g transform="translate(129.790258, 308.658846)"><g><path d="M 10.421875 0 L 10.40625 -7.046875 L 6.90625 -1.171875 L 6.28125 -1.171875 L 2.78125 -7.015625 L 2.78125 0 L 1.453125 0 L 1.453125 -9.671875 L 2.578125 -9.671875 L 6.625 -2.875 L 10.609375 -9.671875 L 11.734375 -9.671875 L 11.75 0 Z M 10.421875 0 "/></g></g></g><g fill="#00214d" fill-opacity="1"><g transform="translate(154.04822, 308.658846)"><g><path d="M 8.484375 -1.203125 L 8.484375 0 L 1.453125 0 L 1.453125 -9.671875 L 8.28125 -9.671875 L 8.28125 -8.484375 L 2.828125 -8.484375 L 2.828125 -5.5 L 7.6875 -5.5 L 7.6875 -4.328125 L 2.828125 -4.328125 L 2.828125 -1.203125 Z M 8.484375 -1.203125 "/></g></g></g><g fill="#00214d" fill-opacity="1"><g transform="translate(174.3685, 308.658846)"><g><path d="M 9.78125 -9.671875 L 9.78125 0 L 8.640625 0 L 2.828125 -7.21875 L 2.828125 0 L 1.453125 0 L 1.453125 -9.671875 L 2.578125 -9.671875 L 8.390625 -2.46875 L 8.390625 -9.671875 Z M 9.78125 -9.671875 "/></g></g></g><g fill="#00214d" fill-opacity="1"><g transform="translate(196.650712, 308.658846)"><g><path d="M 3.375 -8.484375 L 0.0625 -8.484375 L 0.0625 -9.671875 L 8.0625 -9.671875 L 8.0625 -8.484375 L 4.75 -8.484375 L 4.75 0 L 3.375 0 Z M 3.375 -8.484375 "/></g></g></g><g fill="#00214d" fill-opacity="1"><g transform="translate(215.824222, 308.658846)"><g><path d="M 7.625 -2.421875 L 2.46875 -2.421875 L 1.40625 0 L -0.015625 0 L 4.375 -9.671875 L 5.734375 -9.671875 L 10.140625 0 L 8.6875 0 Z M 7.140625 -3.53125 L 5.046875 -8.265625 L 2.953125 -3.53125 Z M 7.140625 -3.53125 "/></g></g></g><g fill="#00214d" fill-opacity="1"><g transform="translate(237.001112, 308.658846)"><g><path d="M 1.453125 -9.671875 L 2.828125 -9.671875 L 2.828125 -1.203125 L 8.078125 -1.203125 L 8.078125 0 L 1.453125 0 Z M 1.453125 -9.671875 "/></g></g></g><g fill="#00214d" fill-opacity="1"><g transform="translate(91.762916, 327.408845)"><g><path d="M 9.78125 -9.671875 L 9.78125 0 L 8.390625 0 L 8.390625 -4.3125 L 2.828125 -4.3125 L 2.828125 0 L 1.453125 0 L 1.453125 -9.671875 L 2.828125 -9.671875 L 2.828125 -5.515625 L 8.390625 -5.515625 L 8.390625 -9.671875 Z M 9.78125 -9.671875 "/></g></g></g><g fill="#00214d" fill-opacity="1"><g transform="translate(114.045125, 327.408845)"><g><path d="M 8.484375 -1.203125 L 8.484375 0 L 1.453125 0 L 1.453125 -9.671875 L 8.28125 -9.671875 L 8.28125 -8.484375 L 2.828125 -8.484375 L 2.828125 -5.5 L 7.6875 -5.5 L 7.6875 -4.328125 L 2.828125 -4.328125 L 2.828125 -1.203125 Z M 8.484375 -1.203125 "/></g></g></g><g fill="#00214d" fill-opacity="1"><g transform="translate(134.365405, 327.408845)"><g><path d="M 7.625 -2.421875 L 2.46875 -2.421875 L 1.40625 0 L -0.015625 0 L 4.375 -9.671875 L 5.734375 -9.671875 L 10.140625 0 L 8.6875 0 Z M 7.140625 -3.53125 L 5.046875 -8.265625 L 2.953125 -3.53125 Z M 7.140625 -3.53125 "/></g></g></g><g fill="#00214d" fill-opacity="1"><g transform="translate(155.542301, 327.408845)"><g><path d="M 1.453125 -9.671875 L 2.828125 -9.671875 L 2.828125 -1.203125 L 8.078125 -1.203125 L 8.078125 0 L 1.453125 0 Z M 1.453125 -9.671875 "/></g></g></g><g fill="#00214d" fill-opacity="1"><g transform="translate(174.812525, 327.408845)"><g><path d="M 3.375 -8.484375 L 0.0625 -8.484375 L 0.0625 -9.671875 L 8.0625 -9.671875 L 8.0625 -8.484375 L 4.75 -8.484375 L 4.75 0 L 3.375 0 Z M 3.375 -8.484375 "/></g></g></g><g fill="#00214d" fill-opacity="1"><g transform="translate(193.986035, 327.408845)"><g><path d="M 9.78125 -9.671875 L 9.78125 0 L 8.390625 0 L 8.390625 -4.3125 L 2.828125 -4.3125 L 2.828125 0 L 1.453125 0 L 1.453125 -9.671875 L 2.828125 -9.671875 L 2.828125 -5.515625 L 8.390625 -5.515625 L 8.390625 -9.671875 Z M 9.78125 -9.671875 "/></g></g></g><g fill="#00214d" fill-opacity="1"><g transform="translate(216.268241, 327.408845)"><g/></g></g><g fill="#00214d" fill-opacity="1"><g transform="translate(231.048136, 327.408845)"><g><path d="M 7.625 -2.421875 L 2.46875 -2.421875 L 1.40625 0 L -0.015625 0 L 4.375 -9.671875 L 5.734375 -9.671875 L 10.140625 0 L 8.6875 0 Z M 7.140625 -3.53125 L 5.046875 -8.265625 L 2.953125 -3.53125 Z M 7.140625 -3.53125 "/></g></g></g><g fill="#00214d" fill-opacity="1"><g transform="translate(252.225026, 327.408845)"><g><path d="M 5.234375 -9.671875 C 6.484375 -9.671875 7.46875 -9.367188 8.1875 -8.765625 C 8.90625 -8.171875 9.265625 -7.351562 9.265625 -6.3125 C 9.265625 -5.257812 8.90625 -4.429688 8.1875 -3.828125 C 7.46875 -3.234375 6.484375 -2.9375 5.234375 -2.9375 L 2.828125 -2.9375 L 2.828125 0 L 1.453125 0 L 1.453125 -9.671875 Z M 5.1875 -4.140625 C 6.0625 -4.140625 6.726562 -4.320312 7.1875 -4.6875 C 7.644531 -5.0625 7.875 -5.601562 7.875 -6.3125 C 7.875 -7.007812 7.644531 -7.546875 7.1875 -7.921875 C 6.726562 -8.296875 6.0625 -8.484375 5.1875 -8.484375 L 2.828125 -8.484375 L 2.828125 -4.140625 Z M 5.1875 -4.140625 "/></g></g></g><g fill="#00214d" fill-opacity="1"><g transform="translate(273.263752, 327.408845)"><g><path d="M 5.234375 -9.671875 C 6.484375 -9.671875 7.46875 -9.367188 8.1875 -8.765625 C 8.90625 -8.171875 9.265625 -7.351562 9.265625 -6.3125 C 9.265625 -5.257812 8.90625 -4.429688 8.1875 -3.828125 C 7.46875 -3.234375 6.484375 -2.9375 5.234375 -2.9375 L 2.828125 -2.9375 L 2.828125 0 L 1.453125 0 L 1.453125 -9.671875 Z M 5.1875 -4.140625 C 6.0625 -4.140625 6.726562 -4.320312 7.1875 -4.6875 C 7.644531 -5.0625 7.875 -5.601562 7.875 -6.3125 C 7.875 -7.007812 7.644531 -7.546875 7.1875 -7.921875 C 6.726562 -8.296875 6.0625 -8.484375 5.1875 -8.484375 L 2.828125 -8.484375 L 2.828125 -4.140625 Z M 5.1875 -4.140625 "/></g></g></g><g fill="#071d3b" fill-opacity="1"><g transform="translate(38.287589, 251.100111)"><g><path d="M -10.828125 1.609375 L -11.1875 0.53125 L -0.890625 -2.765625 L -0.53125 -1.6875 Z M -10.828125 1.609375 "/></g></g></g><g fill="#071d3b" fill-opacity="1"><g transform="translate(35.06426, 240.862264)"><g><path d="M -13.28125 -10.46875 L -2.703125 -12.71875 L -2.46875 -11.640625 L -10.9375 -9.84375 L -2.9375 -7.203125 L -2.828125 -6.671875 L -9.015625 -1 L -0.59375 -2.796875 L -0.375 -1.734375 L -10.953125 0.515625 L -11.140625 -0.390625 L -4.28125 -6.671875 L -13.078125 -9.53125 Z M -13.28125 -10.46875 "/></g></g></g><g fill="#071d3b" fill-opacity="1"><g transform="translate(31.214689, 220.506416)"><g><path d="M -11.28125 -4.8125 C -11.40625 -6.1875 -11.175781 -7.289062 -10.59375 -8.125 C -10.019531 -8.96875 -9.15625 -9.441406 -8 -9.546875 C -6.851562 -9.648438 -5.914062 -9.335938 -5.1875 -8.609375 C -4.46875 -7.890625 -4.046875 -6.84375 -3.921875 -5.46875 L -3.671875 -2.578125 L -0.265625 -2.890625 L -0.15625 -1.765625 L -10.921875 -0.796875 Z M -4.921875 -5.375 C -5.015625 -6.4375 -5.316406 -7.226562 -5.828125 -7.75 C -6.347656 -8.28125 -7.035156 -8.503906 -7.890625 -8.421875 C -8.765625 -8.347656 -9.40625 -8.003906 -9.8125 -7.390625 C -10.226562 -6.785156 -10.390625 -5.953125 -10.296875 -4.890625 L -10.046875 -2.015625 L -4.671875 -2.5 Z M -4.921875 -5.375 "/></g></g></g><g fill="#071d3b" fill-opacity="1"><g transform="translate(30.0003, 203.437839)"><g><path d="M 0.171875 -9.140625 L -3.359375 -6.734375 C -3.328125 -6.460938 -3.316406 -6.175781 -3.328125 -5.875 L -3.375 -2.96875 L 0.0625 -2.90625 L 0.03125 -1.765625 L -10.78125 -1.96875 L -10.703125 -6.015625 C -10.679688 -7.390625 -10.332031 -8.460938 -9.65625 -9.234375 C -8.988281 -10.015625 -8.078125 -10.394531 -6.921875 -10.375 C -6.078125 -10.351562 -5.363281 -10.125 -4.78125 -9.6875 C -4.207031 -9.25 -3.800781 -8.625 -3.5625 -7.8125 L 0.203125 -10.40625 Z M -4.296875 -5.859375 C -4.273438 -6.929688 -4.492188 -7.753906 -4.953125 -8.328125 C -5.421875 -8.910156 -6.082031 -9.210938 -6.9375 -9.234375 C -7.8125 -9.242188 -8.488281 -8.96875 -8.96875 -8.40625 C -9.445312 -7.851562 -9.695312 -7.039062 -9.71875 -5.96875 L -9.765625 -3.09375 L -4.34375 -2.984375 Z M -4.296875 -5.859375 "/></g></g></g><g fill="#071d3b" fill-opacity="1"><g transform="translate(30.616069, 186.285553)"><g><path d="M 0.953125 -6.40625 C 0.816406 -5.351562 0.453125 -4.425781 -0.140625 -3.625 C -0.734375 -2.820312 -1.472656 -2.234375 -2.359375 -1.859375 C -3.253906 -1.492188 -4.21875 -1.378906 -5.25 -1.515625 C -6.28125 -1.648438 -7.175781 -2.015625 -7.9375 -2.609375 C -8.707031 -3.210938 -9.269531 -3.976562 -9.625 -4.90625 C -9.976562 -5.832031 -10.085938 -6.820312 -9.953125 -7.875 C -9.804688 -8.9375 -9.441406 -9.863281 -8.859375 -10.65625 C -8.273438 -11.445312 -7.535156 -12.03125 -6.640625 -12.40625 C -5.742188 -12.78125 -4.78125 -12.898438 -3.75 -12.765625 C -2.71875 -12.628906 -1.816406 -12.257812 -1.046875 -11.65625 C -0.273438 -11.050781 0.285156 -10.289062 0.640625 -9.375 C 0.992188 -8.457031 1.097656 -7.46875 0.953125 -6.40625 Z M -0.046875 -6.546875 C 0.0664062 -7.398438 -0.0195312 -8.191406 -0.3125 -8.921875 C -0.613281 -9.660156 -1.078125 -10.269531 -1.703125 -10.75 C -2.328125 -11.226562 -3.054688 -11.523438 -3.890625 -11.640625 C -4.722656 -11.753906 -5.503906 -11.660156 -6.234375 -11.359375 C -6.972656 -11.054688 -7.578125 -10.585938 -8.046875 -9.953125 C -8.523438 -9.328125 -8.820312 -8.585938 -8.9375 -7.734375 C -9.050781 -6.890625 -8.960938 -6.097656 -8.671875 -5.359375 C -8.378906 -4.617188 -7.921875 -4.007812 -7.296875 -3.53125 C -6.671875 -3.050781 -5.941406 -2.753906 -5.109375 -2.640625 C -4.273438 -2.523438 -3.488281 -2.617188 -2.75 -2.921875 C -2.019531 -3.222656 -1.414062 -3.691406 -0.9375 -4.328125 C -0.457031 -4.960938 -0.160156 -5.703125 -0.046875 -6.546875 Z M -0.046875 -6.546875 "/></g></g></g><g fill="#071d3b" fill-opacity="1"><g transform="translate(33.531065, 167.554424)"><g><path d="M -7.859375 -13.0625 L 1.453125 -5.78125 L 1.1875 -4.703125 L -10.46875 -2.6875 L -10.171875 -3.890625 L -0.046875 -5.609375 L -8.140625 -11.9375 Z M -7.859375 -13.0625 "/></g></g></g><g fill="#071d3b" fill-opacity="1"><g transform="translate(38.042041, 151.290518)"><g><path d="M -9.640625 -5.21875 L -9.265625 -6.296875 L 0.953125 -2.75 L 0.578125 -1.671875 Z M -9.640625 -5.21875 "/></g></g></g><g fill="#071d3b" fill-opacity="1"><g transform="translate(41.660293, 141.162774)"><g><path d="M -5.375 -14.3125 L 4.46875 -9.828125 L 4.078125 -8.96875 L -6.78125 -6.28125 L 1.203125 -2.640625 L 0.734375 -1.609375 L -9.109375 -6.09375 L -8.71875 -6.9375 L 2.140625 -9.640625 L -5.84375 -13.28125 Z M -5.375 -14.3125 "/></g></g></g><g fill="#071d3b" fill-opacity="1"><g transform="translate(49.674224, 124.435988)"><g><path d="M 0.21875 -10.828125 L 0.796875 -11.78125 L 4.328125 -9.640625 C 4.429688 -8.984375 4.40625 -8.296875 4.25 -7.578125 C 4.101562 -6.867188 3.832031 -6.179688 3.4375 -5.515625 C 2.882812 -4.597656 2.175781 -3.890625 1.3125 -3.390625 C 0.457031 -2.890625 -0.453125 -2.644531 -1.421875 -2.65625 C -2.398438 -2.664062 -3.332031 -2.941406 -4.21875 -3.484375 C -5.113281 -4.015625 -5.789062 -4.707031 -6.25 -5.5625 C -6.71875 -6.425781 -6.925781 -7.351562 -6.875 -8.34375 C -6.832031 -9.332031 -6.535156 -10.289062 -5.984375 -11.21875 C -5.554688 -11.925781 -5.050781 -12.507812 -4.46875 -12.96875 C -3.882812 -13.425781 -3.25 -13.71875 -2.5625 -13.84375 L -2.3125 -12.875 C -3.46875 -12.570312 -4.390625 -11.859375 -5.078125 -10.734375 C -5.523438 -9.984375 -5.765625 -9.207031 -5.796875 -8.40625 C -5.835938 -7.601562 -5.664062 -6.851562 -5.28125 -6.15625 C -4.90625 -5.457031 -4.351562 -4.890625 -3.625 -4.453125 C -2.90625 -4.015625 -2.148438 -3.789062 -1.359375 -3.78125 C -0.578125 -3.78125 0.160156 -3.972656 0.859375 -4.359375 C 1.554688 -4.753906 2.128906 -5.328125 2.578125 -6.078125 C 3.160156 -7.023438 3.410156 -7.976562 3.328125 -8.9375 Z M 0.21875 -10.828125 "/></g></g></g><g fill="#071d3b" fill-opacity="1"><g transform="translate(59.37075, 109.234513)"><g/></g></g><g fill="#071d3b" fill-opacity="1"><g transform="translate(65.489283, 101.102538)"><g><path d="M 0.765625 -6.578125 L 3.578125 -4.125 L 2.84375 -3.28125 L 0.03125 -5.734375 L -8.15625 -7.109375 L -7.359375 -8.03125 L -0.359375 -6.84375 L -2.5 -13.625 L -1.75 -14.5 Z M 0.765625 -6.578125 "/></g></g></g><g fill="#071d3b" fill-opacity="1"><g transform="translate(76.045173, 89.315473)"><g><path d="M 4.828125 -4.34375 C 4.046875 -3.613281 3.171875 -3.125 2.203125 -2.875 C 1.242188 -2.632812 0.300781 -2.65625 -0.625 -2.9375 C -1.5625 -3.226562 -2.382812 -3.753906 -3.09375 -4.515625 C -3.800781 -5.285156 -4.253906 -6.140625 -4.453125 -7.078125 C -4.648438 -8.015625 -4.59375 -8.957031 -4.28125 -9.90625 C -3.96875 -10.851562 -3.421875 -11.691406 -2.640625 -12.421875 C -1.847656 -13.140625 -0.972656 -13.613281 -0.015625 -13.84375 C 0.929688 -14.082031 1.867188 -14.0625 2.796875 -13.78125 C 3.734375 -13.507812 4.554688 -12.988281 5.265625 -12.21875 C 5.972656 -11.457031 6.425781 -10.597656 6.625 -9.640625 C 6.832031 -8.679688 6.78125 -7.738281 6.46875 -6.8125 C 6.164062 -5.882812 5.617188 -5.0625 4.828125 -4.34375 Z M 4.140625 -5.078125 C 4.765625 -5.648438 5.195312 -6.3125 5.4375 -7.0625 C 5.6875 -7.820312 5.722656 -8.585938 5.546875 -9.359375 C 5.367188 -10.128906 4.992188 -10.820312 4.421875 -11.4375 C 3.847656 -12.0625 3.1875 -12.492188 2.4375 -12.734375 C 1.6875 -12.972656 0.925781 -13 0.15625 -12.8125 C -0.613281 -12.625 -1.3125 -12.242188 -1.9375 -11.671875 C -2.5625 -11.085938 -3 -10.421875 -3.25 -9.671875 C -3.5 -8.921875 -3.535156 -8.15625 -3.359375 -7.375 C -3.191406 -6.601562 -2.820312 -5.90625 -2.25 -5.28125 C -1.675781 -4.664062 -1.007812 -4.238281 -0.25 -4 C 0.5 -3.769531 1.257812 -3.742188 2.03125 -3.921875 C 2.8125 -4.109375 3.515625 -4.492188 4.140625 -5.078125 Z M 4.140625 -5.078125 "/></g></g></g><g fill="#071d3b" fill-opacity="1"><g transform="translate(90.208602, 76.741718)"><g><path d="M 5.015625 -3.515625 C 3.878906 -2.691406 2.757812 -2.375 1.65625 -2.5625 C 0.550781 -2.757812 -0.453125 -3.484375 -1.359375 -4.734375 L -5 -9.734375 L -4.078125 -10.40625 L -0.46875 -5.4375 C 0.269531 -4.414062 1.050781 -3.820312 1.875 -3.65625 C 2.695312 -3.488281 3.539062 -3.71875 4.40625 -4.34375 C 5.28125 -4.976562 5.765625 -5.710938 5.859375 -6.546875 C 5.953125 -7.378906 5.628906 -8.304688 4.890625 -9.328125 L 1.28125 -14.296875 L 2.171875 -14.953125 L 5.8125 -9.953125 C 6.71875 -8.703125 7.09375 -7.519531 6.9375 -6.40625 C 6.789062 -5.300781 6.148438 -4.335938 5.015625 -3.515625 Z M 5.015625 -3.515625 "/></g></g></g><g fill="#071d3b" fill-opacity="1"><g transform="translate(105.177052, 66.32646)"><g><path d="M 7.953125 -4.515625 L 4.078125 -6.328125 C 3.859375 -6.160156 3.617188 -6 3.359375 -5.84375 L 0.828125 -4.421875 L 2.53125 -1.4375 L 1.53125 -0.875 L -3.796875 -10.28125 L -0.265625 -12.265625 C 0.921875 -12.953125 2.019531 -13.203125 3.03125 -13.015625 C 4.039062 -12.828125 4.832031 -12.234375 5.40625 -11.234375 C 5.820312 -10.492188 5.984375 -9.765625 5.890625 -9.046875 C 5.804688 -8.335938 5.476562 -7.671875 4.90625 -7.046875 L 9.046875 -5.125 Z M 2.859375 -6.671875 C 3.785156 -7.203125 4.378906 -7.8125 4.640625 -8.5 C 4.898438 -9.195312 4.820312 -9.921875 4.40625 -10.671875 C 3.96875 -11.429688 3.382812 -11.875 2.65625 -12 C 1.9375 -12.125 1.113281 -11.921875 0.1875 -11.390625 L -2.3125 -9.984375 L 0.359375 -5.265625 Z M 2.859375 -6.671875 "/></g></g></g><g fill="#071d3b" fill-opacity="1"><g transform="translate(120.403426, 58.177072)"><g/></g></g><g fill="#071d3b" fill-opacity="1"><g transform="translate(129.619869, 54.000054)"><g><path d="M 8.78125 -14.4375 L 12.296875 -4.21875 L 11.265625 -3.875 L 8.453125 -12.0625 L 6.78125 -3.78125 L 6.265625 -3.609375 L -0.09375 -9.0625 L 2.703125 -0.921875 L 1.671875 -0.578125 L -1.84375 -10.796875 L -0.953125 -11.09375 L 6.09375 -5.046875 L 7.875 -14.140625 Z M 8.78125 -14.4375 "/></g></g></g><g fill="#071d3b" fill-opacity="1"><g transform="translate(149.373939, 47.7213)"><g><path d="M 8.984375 -2.96875 L 9.1875 -2 L 1.71875 -0.375 L -0.578125 -10.9375 L 6.671875 -12.5 L 6.890625 -11.546875 L 0.765625 -10.21875 L 1.578125 -6.453125 L 7.046875 -7.640625 L 7.25 -6.6875 L 1.78125 -5.5 L 2.640625 -1.578125 Z M 8.984375 -2.96875 "/></g></g></g><g fill="#071d3b" fill-opacity="1"><g transform="translate(165.403568, 44.522659)"><g><path d="M 9.625 -11.859375 L 10.734375 -1.109375 L 9.8125 -1.015625 L 1.984375 -9.03125 L 2.890625 -0.296875 L 1.75 -0.1875 L 0.640625 -10.9375 L 1.578125 -11.03125 L 9.421875 -3.03125 L 8.515625 -11.75 Z M 9.625 -11.859375 "/></g></g></g><g fill="#071d3b" fill-opacity="1"><g transform="translate(183.925551, 43.028895)"><g><path d="M 3.890625 -9.8125 L 0.09375 -9.828125 L 0.09375 -10.8125 L 8.84375 -10.78125 L 8.84375 -9.796875 L 5.03125 -9.8125 L 5 0.015625 L 3.859375 0.015625 Z M 3.890625 -9.8125 "/></g></g></g><g fill="#071d3b" fill-opacity="1"><g transform="translate(198.837595, 43.326236)"><g><path d="M 8.796875 -1.984375 L 2.796875 -2.609375 L 1.21875 0.125 L 0.03125 0 L 6.0625 -10.234375 L 7.203125 -10.109375 L 10.984375 1.15625 L 9.796875 1.03125 Z M 8.46875 -2.953125 L 6.5 -9 L 3.3125 -3.484375 Z M 8.46875 -2.953125 "/></g></g></g><g fill="#071d3b" fill-opacity="1"><g transform="translate(215.81964, 45.47123)"><g><path d="M 3.953125 -10.21875 L 5.0625 -9.984375 L 3.046875 -0.375 L 8.984375 0.875 L 8.78125 1.84375 L 1.734375 0.359375 Z M 3.953125 -10.21875 "/></g></g></g><g fill="#071d3b" fill-opacity="1"><g transform="translate(230.64868, 48.939396)"><g/></g></g><g fill="#071d3b" fill-opacity="1"><g transform="translate(240.351594, 51.895258)"><g><path d="M 14.03125 -6.0625 L 10.03125 3.984375 L 8.984375 3.578125 L 10.828125 -1.046875 L 4.546875 -3.546875 L 2.703125 1.078125 L 1.640625 0.65625 L 5.640625 -9.390625 L 6.703125 -8.96875 L 4.921875 -4.5 L 11.203125 -2 L 12.984375 -6.46875 Z M 14.03125 -6.0625 "/></g></g></g><g fill="#071d3b" fill-opacity="1"><g transform="translate(257.452134, 59.12232)"><g><path d="M 8.765625 3.546875 L 8.296875 4.421875 L 1.5625 0.828125 L 6.640625 -8.71875 L 13.171875 -5.234375 L 12.71875 -4.359375 L 7.1875 -7.3125 L 5.375 -3.921875 L 10.3125 -1.28125 L 9.84375 -0.40625 L 4.90625 -3.046875 L 3.03125 0.484375 Z M 8.765625 3.546875 "/></g></g></g><g fill="#071d3b" fill-opacity="1"><g transform="translate(271.75255, 67.072864)"><g><path d="M 8.703125 2.40625 L 3.703125 -0.984375 L 1.015625 0.6875 L 0.03125 0.015625 L 10.171875 -6.171875 L 11.125 -5.53125 L 9.140625 6.1875 L 8.15625 5.515625 Z M 8.875 1.40625 L 9.96875 -4.875 L 4.578125 -1.515625 Z M 8.875 1.40625 "/></g></g></g><g fill="#071d3b" fill-opacity="1"><g transform="translate(285.720649, 76.967006)"><g><path d="M 8.296875 -7.140625 L 9.171875 -6.421875 L 2.859375 1.109375 L 7.5 5.015625 L 6.875 5.765625 L 1.359375 1.140625 Z M 8.296875 -7.140625 "/></g></g></g><g fill="#071d3b" fill-opacity="1"><g transform="translate(297.155551, 86.935433)"><g><path d="M 9.703125 -4.140625 L 7.046875 -6.84375 L 7.75 -7.546875 L 13.890625 -1.3125 L 13.1875 -0.609375 L 10.515625 -3.328125 L 3.515625 3.5625 L 2.703125 2.75 Z M 9.703125 -4.140625 "/></g></g></g><g fill="#071d3b" fill-opacity="1"><g transform="translate(307.451592, 97.703208)"><g><path d="M 15.1875 1.71875 L 6.71875 8.453125 L 6.015625 7.5625 L 9.921875 4.453125 L 5.71875 -0.828125 L 1.8125 2.28125 L 1.09375 1.375 L 9.5625 -5.359375 L 10.28125 -4.453125 L 6.515625 -1.453125 L 10.71875 3.828125 L 14.484375 0.828125 Z M 15.1875 1.71875 "/></g></g></g><g fill="#071d3b" fill-opacity="1"><g transform="translate(318.68218, 112.581183)"><g/></g></g><g fill="#071d3b" fill-opacity="1"><g transform="translate(324.178901, 121.101869)"><g><path d="M 2.96875 5.78125 C 2.46875 4.832031 2.222656 3.859375 2.234375 2.859375 C 2.242188 1.867188 2.5 0.960938 3 0.140625 C 3.507812 -0.679688 4.226562 -1.335938 5.15625 -1.828125 C 6.070312 -2.316406 7.007812 -2.539062 7.96875 -2.5 C 8.9375 -2.457031 9.835938 -2.160156 10.671875 -1.609375 C 11.503906 -1.066406 12.171875 -0.320312 12.671875 0.625 C 13.171875 1.5625 13.410156 2.519531 13.390625 3.5 C 13.378906 4.476562 13.117188 5.382812 12.609375 6.21875 C 12.109375 7.050781 11.398438 7.710938 10.484375 8.203125 C 9.554688 8.691406 8.601562 8.910156 7.625 8.859375 C 6.65625 8.816406 5.757812 8.523438 4.9375 7.984375 C 4.125 7.453125 3.46875 6.71875 2.96875 5.78125 Z M 3.859375 5.296875 C 4.253906 6.046875 4.785156 6.632812 5.453125 7.0625 C 6.117188 7.488281 6.847656 7.71875 7.640625 7.75 C 8.429688 7.78125 9.203125 7.597656 9.953125 7.203125 C 10.691406 6.804688 11.269531 6.269531 11.6875 5.59375 C 12.113281 4.925781 12.332031 4.195312 12.34375 3.40625 C 12.363281 2.613281 12.175781 1.84375 11.78125 1.09375 C 11.375 0.332031 10.835938 -0.257812 10.171875 -0.6875 C 9.515625 -1.113281 8.785156 -1.335938 7.984375 -1.359375 C 7.191406 -1.390625 6.425781 -1.207031 5.6875 -0.8125 C 4.9375 -0.414062 4.351562 0.113281 3.9375 0.78125 C 3.519531 1.445312 3.300781 2.175781 3.28125 2.96875 C 3.257812 3.757812 3.453125 4.535156 3.859375 5.296875 Z M 3.859375 5.296875 "/></g></g></g><g fill="#071d3b" fill-opacity="1"><g transform="translate(332.729734, 138.001209)"><g><path d="M 2.125 5.734375 C 1.613281 4.429688 1.59375 3.269531 2.0625 2.25 C 2.53125 1.226562 3.484375 0.441406 4.921875 -0.109375 L 10.6875 -2.359375 L 11.09375 -1.296875 L 5.375 0.9375 C 4.195312 1.394531 3.421875 2 3.046875 2.75 C 2.679688 3.5 2.691406 4.375 3.078125 5.375 C 3.460938 6.375 4.046875 7.023438 4.828125 7.328125 C 5.617188 7.640625 6.601562 7.566406 7.78125 7.109375 L 13.5 4.875 L 13.890625 5.90625 L 8.125 8.15625 C 6.6875 8.707031 5.453125 8.765625 4.421875 8.328125 C 3.390625 7.898438 2.625 7.035156 2.125 5.734375 Z M 2.125 5.734375 "/></g></g></g><g fill="#071d3b" fill-opacity="1"><g transform="translate(338.963269, 155.165368)"><g><path d="M 10.5 1.140625 L 9.5 -2.515625 L 10.453125 -2.765625 L 12.75 5.671875 L 11.796875 5.921875 L 10.796875 2.25 L 1.3125 4.828125 L 1.015625 3.71875 Z M 10.5 1.140625 "/></g></g></g><g fill="#071d3b" fill-opacity="1"><g transform="translate(342.63228, 169.622061)"><g><path d="M 0.953125 6.375 C 0.785156 5.332031 0.863281 4.34375 1.1875 3.40625 C 1.519531 2.476562 2.054688 1.703125 2.796875 1.078125 C 3.546875 0.460938 4.429688 0.0703125 5.453125 -0.09375 C 6.484375 -0.269531 7.453125 -0.1875 8.359375 0.15625 C 9.273438 0.507812 10.035156 1.078125 10.640625 1.859375 C 11.253906 2.640625 11.644531 3.550781 11.8125 4.59375 C 11.945312 5.394531 11.9375 6.15625 11.78125 6.875 C 11.625 7.59375 11.332031 8.226562 10.90625 8.78125 L 10.078125 8.171875 C 10.785156 7.203125 11.035156 6.078125 10.828125 4.796875 C 10.679688 3.960938 10.359375 3.226562 9.859375 2.59375 C 9.367188 1.96875 8.75 1.515625 8 1.234375 C 7.257812 0.953125 6.472656 0.882812 5.640625 1.03125 C 4.804688 1.164062 4.085938 1.484375 3.484375 1.984375 C 2.890625 2.484375 2.453125 3.109375 2.171875 3.859375 C 1.890625 4.617188 1.820312 5.414062 1.96875 6.25 C 2.175781 7.539062 2.773438 8.53125 3.765625 9.21875 L 3.1875 10.046875 C 2.582031 9.671875 2.09375 9.164062 1.71875 8.53125 C 1.34375 7.894531 1.085938 7.175781 0.953125 6.375 Z M 0.953125 6.375 "/></g></g></g><g fill="#071d3b" fill-opacity="1"><g transform="translate(345.133699, 186.541973)"><g><path d="M 0.234375 6.46875 C 0.171875 5.414062 0.359375 4.441406 0.796875 3.546875 C 1.234375 2.648438 1.859375 1.9375 2.671875 1.40625 C 3.484375 0.875 4.410156 0.582031 5.453125 0.53125 C 6.484375 0.476562 7.425781 0.675781 8.28125 1.125 C 9.132812 1.570312 9.820312 2.21875 10.34375 3.0625 C 10.863281 3.914062 11.15625 4.867188 11.21875 5.921875 C 11.269531 6.992188 11.078125 7.972656 10.640625 8.859375 C 10.210938 9.742188 9.59375 10.453125 8.78125 10.984375 C 7.96875 11.523438 7.046875 11.820312 6.015625 11.875 C 4.972656 11.925781 4.019531 11.722656 3.15625 11.265625 C 2.289062 10.816406 1.597656 10.171875 1.078125 9.328125 C 0.566406 8.492188 0.285156 7.539062 0.234375 6.46875 Z M 1.25 6.421875 C 1.289062 7.273438 1.519531 8.035156 1.9375 8.703125 C 2.363281 9.378906 2.925781 9.894531 3.625 10.25 C 4.332031 10.613281 5.109375 10.773438 5.953125 10.734375 C 6.785156 10.691406 7.535156 10.457031 8.203125 10.03125 C 8.867188 9.601562 9.378906 9.035156 9.734375 8.328125 C 10.085938 7.617188 10.242188 6.835938 10.203125 5.984375 C 10.148438 5.140625 9.914062 4.378906 9.5 3.703125 C 9.082031 3.023438 8.519531 2.503906 7.8125 2.140625 C 7.101562 1.785156 6.332031 1.628906 5.5 1.671875 C 4.65625 1.710938 3.898438 1.945312 3.234375 2.375 C 2.578125 2.800781 2.066406 3.367188 1.703125 4.078125 C 1.347656 4.796875 1.195312 5.578125 1.25 6.421875 Z M 1.25 6.421875 "/></g></g></g><g fill="#071d3b" fill-opacity="1"><g transform="translate(345.753654, 205.443176)"><g><path d="M 9.796875 13.78125 L -0.984375 12.96875 L -0.90625 11.875 L 7.71875 12.53125 L 0.796875 7.75 L 0.828125 7.203125 L 8.359375 3.5 L -0.21875 2.84375 L -0.140625 1.765625 L 10.640625 2.578125 L 10.578125 3.515625 L 2.21875 7.609375 L 9.875 12.828125 Z M 9.796875 13.78125 "/></g></g></g><g fill="#071d3b" fill-opacity="1"><g transform="translate(343.70191, 226.069703)"><g><path d="M -0.84375 9.421875 L -1.8125 9.234375 L -0.34375 1.734375 L 10.265625 3.8125 L 8.84375 11.078125 L 7.875 10.890625 L 9.078125 4.75 L 5.3125 4.015625 L 4.234375 9.5 L 3.265625 9.296875 L 4.34375 3.8125 L 0.40625 3.046875 Z M -0.84375 9.421875 "/></g></g></g><g fill="#071d3b" fill-opacity="1"><g transform="translate(340.235711, 242.078416)"><g><path d="M -1.46875 4.515625 C -1.238281 3.734375 -0.890625 3.03125 -0.421875 2.40625 C 0.0351562 1.78125 0.523438 1.332031 1.046875 1.0625 L 1.75 1.765625 C 1.269531 2.023438 0.816406 2.425781 0.390625 2.96875 C -0.0234375 3.519531 -0.332031 4.128906 -0.53125 4.796875 C -0.8125 5.722656 -0.847656 6.46875 -0.640625 7.03125 C -0.441406 7.601562 -0.078125 7.972656 0.453125 8.140625 C 0.867188 8.265625 1.238281 8.234375 1.5625 8.046875 C 1.882812 7.867188 2.164062 7.617188 2.40625 7.296875 C 2.65625 6.972656 2.960938 6.515625 3.328125 5.921875 C 3.742188 5.191406 4.113281 4.625 4.4375 4.21875 C 4.757812 3.8125 5.160156 3.5 5.640625 3.28125 C 6.117188 3.0625 6.675781 3.046875 7.3125 3.234375 C 7.84375 3.398438 8.273438 3.6875 8.609375 4.09375 C 8.953125 4.507812 9.164062 5.039062 9.25 5.6875 C 9.332031 6.332031 9.25 7.078125 9 7.921875 C 8.8125 8.523438 8.550781 9.082031 8.21875 9.59375 C 7.882812 10.113281 7.515625 10.535156 7.109375 10.859375 L 6.359375 10.21875 C 6.765625 9.875 7.113281 9.476562 7.40625 9.03125 C 7.707031 8.582031 7.929688 8.117188 8.078125 7.640625 C 8.347656 6.734375 8.378906 5.992188 8.171875 5.421875 C 7.960938 4.859375 7.578125 4.492188 7.015625 4.328125 C 6.609375 4.203125 6.238281 4.226562 5.90625 4.40625 C 5.570312 4.582031 5.28125 4.84375 5.03125 5.1875 C 4.789062 5.53125 4.492188 5.992188 4.140625 6.578125 C 3.722656 7.296875 3.347656 7.859375 3.015625 8.265625 C 2.691406 8.671875 2.296875 8.976562 1.828125 9.1875 C 1.359375 9.40625 0.8125 9.421875 0.1875 9.234375 C -0.332031 9.078125 -0.765625 8.789062 -1.109375 8.375 C -1.453125 7.957031 -1.660156 7.421875 -1.734375 6.765625 C -1.816406 6.109375 -1.726562 5.359375 -1.46875 4.515625 Z M -1.46875 4.515625 "/></g></g></g></svg>